# xmcd
#
# Track frame offsets:
#	150
#	28755
#	46564
#	66825
#	75373
#	89194
#	98776
#	113741
#	123131
#	133307
#	147630
#	163468
#
# Disc length: 2452
#
# Revision: 1
# Processed by: cddbd v1.5.1PL0 Copyright (c) Steve Scherf et al.
# Submitted via: CDex 1.51
# Normalized: r0:DSETVAR1,TDELIM( - )
#
DISCID=a809920c
DTITLE=Various Artist - Still Dreaming
DYEAR=2004
DGENRE=Jazz
TTITLE0=Lee Oscar - Haunted House
TTITLE1=Winners - Music
TTITLE2=Louis Bellson and Walfredo de los Reyes - Javilla
TTITLE3=La Carnival - Theme Carnival
TTITLE4=Wildstyle - Playtime
TTITLE5=Herman Chin Loy - Heavy Dub
TTITLE6=Kenny Rankin - In The Name Of Love
TTITLE7=Basie and Davis Jr - Work Song
TTITLE8=Soul Seekers - Dont Get Around Much Anymore
TTITLE9=Cheo Feliciano - Oye Como Va
TTITLE10=Danniebelle - Its Freedom
TTITLE11=Brenda Russell - A Little Bit Of Love
EXTD=YEAR: 2004
EXTT0=
EXTT1=
EXTT2=
EXTT3=
EXTT4=
EXTT5=
EXTT6=
EXTT7=
EXTT8=
EXTT9=
EXTT10=
EXTT11=
PLAYORDER=
